<?xml version="1.0" standalone="no"?><!DOCTYPE svg PUBLIC "-//W3C//DTD SVG 1.1//EN" "http://www.w3.org/Graphics/SVG/1.1/DTD/svg11.dtd"><svg t="1602035764975" class="icon" viewBox="0 0 1024 1024" version="1.1" xmlns="http://www.w3.org/2000/svg" p-id="4557" xmlns:xlink="http://www.w3.org/1999/xlink" width="200" height="200"><defs><style type="text/css"></style></defs><path d="M826.3 169.9H199.5c-23.3 0-42.2 18.9-42.2 42.2v672.3c0 22.4 18.2 40.5 40.5 40.5h628.4c23.3 0 42.2-18.9 42.2-42.2V212.1c0.1-23.3-18.8-42.2-42.1-42.2zM588.1 600.7c0 11.2-9.1 20.3-20.3 20.3H329.6c-11.2 0-20.3-9.1-20.3-20.3v-32.1c0-11.2 9.1-20.3 20.3-20.3h238.2c11.2 0 20.3 9.1 20.3 20.3v32.1zM681 450.3c0 11.2-9.1 20.3-20.3 20.3H329.6c-11.2 0-20.3-9.1-20.3-20.3v-30.4c0-11.2 9.1-20.3 20.3-20.3h331.1c11.2 0 20.3 9.1 20.3 20.3v30.4z" p-id="4558" fill="#ffffff"></path><path d="M421.5 246.3H310.3c-0.6 0-1-0.4-1-1V101.6c0-0.6 0.4-1 1-1h111.2c0.6 0 1 0.4 1 1v143.7c0 0.6-0.4 1-1 1zM720.5 246.3H609.3c-0.6 0-1-0.4-1-1V101.6c0-0.6 0.4-1 1-1h111.2c0.6 0 1 0.4 1 1v143.7c0 0.6-0.4 1-1 1z" p-id="4559" fill="#ffffff"></path></svg>