<?xml version="1.0" standalone="no"?>
<!DOCTYPE svg PUBLIC "-//W3C//DTD SVG 20010904//EN" "http://www.w3.org/TR/2001/REC-SVG-20010904/DTD/svg10.dtd">
<svg version="1.0" xmlns="http://www.w3.org/2000/svg" width="200.000000pt" height="200.000000pt" viewBox="0 0 200.000000 200.000000" preserveAspectRatio="xMidYMid meet">
    <g transform="translate(0.000000,200.000000) scale(0.100000,-0.100000)" fill="#000000" stroke="none">
        <path d="M817 1490 c-97 -25 -212 -110 -262 -195 -74 -127 -71 -302 8 -434 106 -177 345 -243 544 -149 l45 21 126 -126 c141 -140 166 -154 206 -113 48 47 39 66 -102 210 l-127 131 34 68 c107 211 1 484 -221 569 -60 23 -193 32 -251 18z m178 -85 c103 -27 178 -89 223 -185 22 -46 27 -69 27 -140 0 -78 -3 -90 -34 -148 -155 -286 -568 -218 -622 103 -11 64 -10 77 9 142 36 116 119 196 242 229 61 17 85 17 155 -1z"/>
    </g>
</svg>
